<svg xmlns="http://www.w3.org/2000/svg" viewBox="0 0 200 200">
  <defs>
    <style>
      .a {
        fill: #fff;
      }

      .b {
        fill: none;
        stroke: #fff;
        stroke-miterlimit: 10;
        stroke-width: 3px;
      }
    </style>
  </defs>
  <title>bowl</title>
  <g>
    <path d="M100,0A100,100,0,1,1,0,100,100,100,0,0,1,100,0Z"/>
    <path class="a" d="M105.6,91.7H95.9l34.2-34.2L122.5,50,80.9,91.6H45.4l3.8,10.6h98.2l3.7-10.6H120.3l34.3-34.2L147.1,50,105.6,91.7Zm39.8,16L130,150H66.6L51.1,107.7Z"/>
    <path class="b" d="M100,10a90,90,0,1,1-90,90,90,90,0,0,1,90-90Z"/>
  </g>
</svg>
