<svg xmlns="http://www.w3.org/2000/svg" viewBox="0 0 200 200">
  <defs>
    <style>
      .a {
        fill: #fff;
      }
    </style>
  </defs>
  <title>card</title>
  <rect class="a" y="30" width="200" height="140" rx="10" ry="10"/>
  <g>
    <path d="M0,160a10,10,0,0,0,10,10H190a10,10,0,0,0,10-10V60H0ZM166.3,99.9a2.6,2.6,0,0,1,3.3,0c10.3,10.4,10.3,27.5,0,38.2a2.9,2.9,0,0,1-3.3,0,2.7,2.7,0,0,1-.8-1.6,1.9,1.9,0,0,1,.8-1.5,22.5,22.5,0,0,0,0-31.8A2.6,2.6,0,0,1,166.3,99.9Zm-6.6,9.9a2.9,2.9,0,0,1,0-3.3,2.6,2.6,0,0,1,3.3,0,17.9,17.9,0,0,1,0,25,2.9,2.9,0,0,1-3.3,0,2.1,2.1,0,0,1-.7-1.5c0-.5.2-1.3.7-1.5A13.3,13.3,0,0,0,159.7,109.8Zm-6.6,6.5a2.3,2.3,0,0,1,3.3-3.3,8.4,8.4,0,0,1,0,11.9,2.6,2.6,0,0,1-3.3,0,2.1,2.1,0,0,1-.7-1.5c0-.5.2-1.3.7-1.5A3.9,3.9,0,0,0,153.1,116.3ZM20,102.5a2.5,2.5,0,0,1,2.5-2.5h95a2.5,2.5,0,0,1,2.5,2.5v5a2.5,2.5,0,0,1-2.5,2.5h-95a2.5,2.5,0,0,1-2.5-2.5Zm0,30a2.5,2.5,0,0,1,2.5-2.5h55a2.5,2.5,0,0,1,2.5,2.5v5a2.5,2.5,0,0,1-2.5,2.5h-55a2.5,2.5,0,0,1-2.5-2.5Z"/>
    <path d="M195,30H5a5,5,0,0,0-5,5V50H200V35A5,5,0,0,0,195,30Z"/>
  </g>
</svg>
