<?xml version="1.0" encoding="utf-8"?>
<!-- Generator: Adobe Illustrator 22.1.0, SVG Export Plug-In . SVG Version: 6.00 Build 0)  -->
<svg version="1.1" id="Layer_1" xmlns="http://www.w3.org/2000/svg" xmlns:xlink="http://www.w3.org/1999/xlink" x="0px" y="0px"
	 viewBox="0 0 200 200" style="enable-background:new 0 0 200 200;" xml:space="preserve">
<style type="text/css">
	.st0{fill:#FFFFFF;}
	.st1{fill:none;stroke:#FFFFFF;stroke-width:2;stroke-miterlimit:10;}
</style>
<title>cash</title>
<path d="M10,30h180c5.5,0,10,4.5,10,10v120c0,5.5-4.5,10-10,10H10c-5.5,0-10-4.5-10-10V40C0,34.5,4.5,30,10,30z"/>
<path class="st0" d="M104.4,143.7v-8.8c5.8-0.6,10.2-2.5,13.5-5.8c3.3-3.4,5.2-8,5-12.7c0-2.5-0.5-5-1.4-7.4
	c-0.9-2.1-2.2-4.1-3.9-5.6c-1.8-1.7-3.8-3.2-6-4.4c-3-1.5-6-2.9-9.1-4.1c-2.8-1-5.3-2.5-7.5-4.4c-2.7-3.3-2.5-8.1,0.3-11.3
	c0.8-1.9,2.8-2.5,5.5-2.5c2.4-0.2,4.7,0.9,6.1,2.8c1.6,1.9,2.2,4.6,2.2,8.2h13.2c0-6-1.6-11-4.7-14.6s-7.4-6-12.6-6.9v-9.9h-7.5V66
	c-5.5,0.5-9.9,2.4-13.2,5.7c-3.3,3.4-5.1,8-5,12.7c0,2.6,0.5,5.2,1.4,7.7c0.9,2.2,2.3,4.2,4.1,5.8c1.9,1.8,4.1,3.3,6.4,4.4
	c2.8,1.5,5.6,2.8,8.5,3.9c2.6,1,5,2.4,7.2,4.1c1.5,1.7,2.3,3.9,2.2,6.1c0.1,2.2-0.8,4.4-2.5,5.8c-1.8,1.5-4,2.3-6.3,2.2
	c-2.8,0.2-5.6-0.9-7.5-3c-1.6-2-2.4-4.7-2.4-8.6H77.1c0,6.4,1.7,11.3,5.3,15.2c3.6,3.9,8.2,6,14.6,6.6v9.1"/>
<path class="st1" d="M181.5,40.8H18.6c-5,0-9.1,3.8-9.1,8.5v101.4c0,4.7,4.1,8.5,9.1,8.5h162.9c4.8,0.1,8.8-3.7,9-8.5V49.3
	C190.3,44.5,186.3,40.7,181.5,40.8z"/>
</svg>
