<svg xmlns="http://www.w3.org/2000/svg" viewBox="0 0 200 200">
  <defs>
    <style>
      .a {
        fill: none;
        stroke: #fff;
        stroke-miterlimit: 10;
        stroke-width: 3px;
      }

      .b {
        fill: #fff;
      }
    </style>
  </defs>
  <title>pay</title>
  <path d="M100,0A100,100,0,1,1,0,100,100,100,0,0,1,100,0Z"/>
  <path class="a" d="M100,10a90,90,0,1,1-90,90,90,90,0,0,1,90-90Z"/>
  <path class="b" d="M105.1,150V139.9c6.6-.6,11.6-2.9,15.4-6.6s5.7-8.6,5.7-14.6a23,23,0,0,0-1.6-8.5,17.1,17.1,0,0,0-4.4-6.3,31.7,31.7,0,0,0-6.9-5.1,89.6,89.6,0,0,0-10.5-4.7A25,25,0,0,1,94.3,89c-1.6-1.5-2.2-3.8-2.2-6.3a9.4,9.4,0,0,1,2.5-6.6c1-2.2,3.2-2.9,6.3-2.9a8.2,8.2,0,0,1,7,3.2c1.9,2.2,2.5,5.4,2.5,9.5h15.2c0-7-1.9-12.7-5.4-16.8s-8.5-6.9-14.5-7.9V49.9H97.2v11c-6.4.6-11.4,2.9-15.2,6.7a19.7,19.7,0,0,0-5.7,14.5,23,23,0,0,0,1.6,8.8,19.8,19.8,0,0,0,4.7,6.7,32.2,32.2,0,0,0,7.3,5,76.6,76.6,0,0,0,9.8,4.4c3.8,1.6,6.6,3.2,8.2,4.8a9.7,9.7,0,0,1,2.5,6.9,8.2,8.2,0,0,1-2.8,6.7,11.7,11.7,0,0,1-7.3,2.5c-3.8,0-6.6-1.3-8.5-3.5s-2.9-5.4-2.9-9.8H73.8c0,7.3,1.9,13,6,17.4s9.5,6.9,16.7,7.6V150"/>
</svg>
