<?xml version="1.0" encoding="utf-8"?>
<!-- Generator: Adobe Illustrator 22.1.0, SVG Export Plug-In . SVG Version: 6.00 Build 0)  -->
<svg version="1.1" id="Layer_1" xmlns="http://www.w3.org/2000/svg" xmlns:xlink="http://www.w3.org/1999/xlink" x="0px" y="0px"
	 viewBox="0 0 1661.9 446.9" style="enable-background:new 0 0 1661.9 446.9;" xml:space="preserve">
<style type="text/css">
	.st0{fill:#E51D13;}
	.st1{fill:#FFFFFF;}
</style>
<path class="st0" d="M978,80.3h-52.2l-16.4,49.9L893,80.3h-52.3l42.1-30.4L867.2,0l42.1,31.2L951.4,0l-15.6,49.9L978,80.3z"/>
<path class="st1" d="M133.4,174.7H95.2L75.7,300.3c-3.1,14.8-3.9,28.9-4.7,43.7h-0.8c0-8.6-3.1-39-3.9-45.2l-17.2-124H0l42.1,203.6
	h52.2l14-85c2.3-15.6,3.9-32,4.7-48.4h1.6c1.6,17.2,3.1,34.3,6.2,51.5l15.6,81.9h50.7l41.3-203.6h-46.8l-15.6,124
	c-1.6,5.5-3.9,35.9-3.9,44.4h-1.6c-0.8-14.6-2.3-29.2-4.7-43.7L133.4,174.7z M393.1,378.3c-2.3-9.4-3.9-18.7-3.9-28.1V230.1
	c0.8-26.5-3.1-60.1-67.1-60.1c-59.3,0-71.7,26.5-71,65.5h44.5c0-18.7,3.1-29.6,25-29.6c12.5,0,19.5,1.6,21.8,10.1
	c3.9,16.4-3.1,25.7-23.4,34.3c-36.7,14.8-69.4,25.7-69.4,72.5c0,42.1,16.4,60.8,54.6,60.8c15.6,0,30.4-9.4,40.6-26.5h0.8
	c-0.8,7.8,0,14.8,3.1,21.1L393.1,378.3L393.1,378.3z M342.4,293.3c-1.6,19.5,3.9,54.6-24.2,54.6c-17.2,0-21.8-10.9-21.8-25.7
	c0-8.6,0.8-18.7,7.8-25c12.5-10.1,26.5-17.9,38.2-25.7V293.3L342.4,293.3z M521.8,251.1V312c0,23.4-7.8,35.9-23.4,35.9
	c-14,0-19.5-15.6-20.3-35.1V245c1.6-20.3-0.8-39,21.1-39C521.8,205.9,521.8,234.8,521.8,251.1L521.8,251.1z M433.6,400.9
	c2.3,34.3,28.1,46,59.3,46c64,0,75.6-32.8,75.6-74.9V174.7h-46.8v21.1H521c-7-17.9-19.5-26.5-41.3-25.7c-29.6,0-47.6,16.4-48.4,71.7
	v74.1c0.8,32,9.4,67.9,48.4,67.9c20.3-0.8,33.5-7,42.9-26.5l0.8,0.8v23.4c0,15.6-3.1,32-23.4,32c-5.5,0-10.9-0.8-14-3.1
	c-3.1-1.6-5.5-4.7-5.5-9.4L433.6,400.9L433.6,400.9z M750.3,378.3c-2.3-9.4-3.9-18.7-3.9-28.1V230.1c0.8-26.5-3.1-60.1-67.1-60.1
	c-58.5,0-71.7,26.5-71,65.5h44.5c0-18.7,3.1-29.6,24.9-29.6c12.5,0,19.5,1.6,21.8,10.1c3.9,16.4-3.1,25.7-23.4,34.3
	c-36.7,14.8-69.4,25.7-69.4,72.5c0,42.1,16.4,60.8,54.6,60.8c15.6,0,30.4-9.4,41.3-26.5h0.8c-0.8,7.8-0.8,14.8,2.3,21.1L750.3,378.3
	L750.3,378.3z M699.6,293.3c-0.8,19.5,3.9,54.6-24.2,54.6c-17.2,0-21.8-10.9-21.8-25.7c0-8.6,1.6-18.7,7.8-25
	c12.5-10.1,26.5-17.9,38.2-25.7V293.3L699.6,293.3z M841.5,174.7h-46.8v203.6h46.8V244.9c0-22.6,0.8-39,22.6-39
	c21.8-0.8,23.4,14.8,23.4,32.8v139.6h46.8V244.9c0-24.2,3.9-38.2,24.2-39c20.3-1.6,21.8,16.4,21.8,35.1v137.3h46.8V212.9
	c0-21.8-14.8-42.9-49.2-42.9c-23.4,0-38.2,8.6-47.6,25.7c-3.1-18.7-26.5-26.5-43.7-25.7c-14.8,0-34.3,3.9-44.5,25.7h-0.8
	L841.5,174.7L841.5,174.7z M1205.7,378.3c-2.3-9.4-3.9-18.7-3.9-28.1V230.1c0.8-26.5-3.1-60.1-67.1-60.1c-58.5,0-71,26.5-71,65.5
	h44.5c0-18.7,3.1-29.6,24.9-29.6c12.5,0,19.5,1.6,21.8,10.1c3.9,16.4-3.1,25.7-23.4,34.3c-36.7,14.8-69.4,25.7-69.4,72.5
	c0,42.1,16.4,60.8,54.6,60.8c15.6,0,30.4-9.4,41.3-26.5h0.8c-0.8,7.8-0.8,14.8,2.3,21.1L1205.7,378.3L1205.7,378.3z M1155,293.3
	c-0.8,19.5,3.9,54.6-24.2,54.6c-17.2,0-21.8-10.9-21.8-25.7c0-8.6,1.6-18.7,7.8-25c12.5-10.1,26.5-17.9,38.2-25.7V293.3L1155,293.3z
	 M1296.2,174.7h-46.8v203.6h46.8V244.9c0-22.6,0.8-39,22.6-39c21.8-0.8,23.4,14.8,23.4,32.8v139.6h46.8V244.9
	c0-24.2,3.9-38.2,24.2-39c20.3-1.6,21.8,16.4,21.8,35.1v137.3h46.8V212.9c0-21.8-14.8-42.9-49.1-42.9c-23.4,0-38.2,8.6-47.6,25.7
	c-3.1-18.7-26.5-26.5-43.7-25.7c-14.8,0-34.3,3.9-44.5,25.7h-0.8L1296.2,174.7L1296.2,174.7z M1662,379.8
	c-2.3-9.4-3.9-18.7-3.9-28.9v-120c0.8-26.5-3.1-60.1-67.1-60.1c-58.5,0-71.8,27.3-71,65.5h44.5c0-17.9,3.1-29.6,24.9-29.6
	c12.5,0,19.5,1.6,21.8,10.9c3.9,16.4-3.1,25.7-23.4,33.5c-36.7,15.6-69.4,26.5-69.4,73.3c0,41.3,16.4,60.8,54.6,60.8
	c15.6,0,30.4-9.4,40.6-26.5h0.8c-0.8,7,0,14,3.1,21.1L1662,379.8L1662,379.8z M1611.3,294.8c-1.6,19.5,3.9,54.6-24.2,54.6
	c-17.2,0-21.8-10.9-21.8-26.5c0-8.6,0.8-18.7,7.8-24.2c12.5-10.1,26.5-17.9,38.2-26.5V294.8L1611.3,294.8z"/>
</svg>
